<svg width="20" height="20" viewBox="0 0 20 20" fill="none" xmlns="http://www.w3.org/2000/svg">
<path d="M5.33317 2.99996C5.33317 4.28862 4.2885 5.33329 2.99984 5.33329C1.71117 5.33329 0.666504 4.28862 0.666504 2.99996C0.666504 1.71129 1.71117 0.666626 2.99984 0.666626C4.2885 0.666626 5.33317 1.71129 5.33317 2.99996Z" fill="#F0D400"/>
<path d="M5.33317 9.99996C5.33317 11.2886 4.2885 12.3333 2.99984 12.3333C1.71117 12.3333 0.666504 11.2886 0.666504 9.99996C0.666504 8.7113 1.71117 7.66663 2.99984 7.66663C4.2885 7.66663 5.33317 8.7113 5.33317 9.99996Z" fill="#F0D400"/>
<path d="M2.99984 19.3333C4.2885 19.3333 5.33317 18.2886 5.33317 17C5.33317 15.7113 4.2885 14.6666 2.99984 14.6666C1.71117 14.6666 0.666504 15.7113 0.666504 17C0.666504 18.2886 1.71117 19.3333 2.99984 19.3333Z" fill="#F0D400"/>
<path d="M12.3332 2.99996C12.3332 4.28862 11.2885 5.33329 9.99984 5.33329C8.71117 5.33329 7.6665 4.28862 7.6665 2.99996C7.6665 1.71129 8.71117 0.666626 9.99984 0.666626C11.2885 0.666626 12.3332 1.71129 12.3332 2.99996Z" fill="#F0D400"/>
<path d="M9.99984 12.3333C11.2885 12.3333 12.3332 11.2886 12.3332 9.99996C12.3332 8.7113 11.2885 7.66663 9.99984 7.66663C8.71117 7.66663 7.6665 8.7113 7.6665 9.99996C7.6665 11.2886 8.71117 12.3333 9.99984 12.3333Z" fill="#F0D400"/>
<path d="M12.3332 17C12.3332 18.2886 11.2885 19.3333 9.99984 19.3333C8.71117 19.3333 7.6665 18.2886 7.6665 17C7.6665 15.7113 8.71117 14.6666 9.99984 14.6666C11.2885 14.6666 12.3332 15.7113 12.3332 17Z" fill="#F0D400"/>
<path d="M16.9998 5.33329C18.2885 5.33329 19.3332 4.28862 19.3332 2.99996C19.3332 1.71129 18.2885 0.666626 16.9998 0.666626C15.7112 0.666626 14.6665 1.71129 14.6665 2.99996C14.6665 4.28862 15.7112 5.33329 16.9998 5.33329Z" fill="#F0D400"/>
<path d="M19.3332 9.99996C19.3332 11.2886 18.2885 12.3333 16.9998 12.3333C15.7112 12.3333 14.6665 11.2886 14.6665 9.99996C14.6665 8.7113 15.7112 7.66663 16.9998 7.66663C18.2885 7.66663 19.3332 8.7113 19.3332 9.99996Z" fill="#F0D400"/>
<path d="M16.9998 19.3333C18.2885 19.3333 19.3332 18.2886 19.3332 17C19.3332 15.7113 18.2885 14.6666 16.9998 14.6666C15.7112 14.6666 14.6665 15.7113 14.6665 17C14.6665 18.2886 15.7112 19.3333 16.9998 19.3333Z" fill="#F0D400"/>
</svg>
